<svg width="121" height="17" viewBox="0 0 121 17" fill="none" xmlns="http://www.w3.org/2000/svg">
<g id="icons">
<g id="shop bag">
<mask id="path-1-inside-1_1_421" fill="white">
<path fill-rule="evenodd" clip-rule="evenodd" d="M113 1H115C116.105 1 117 1.89543 117 3V5H111V3C111 1.89543 111.895 1 113 1ZM110 5V3C110 1.34315 111.343 0 113 0H115C116.657 0 118 1.34315 118 3V5H118.216C119.261 5 120.129 5.80364 120.21 6.84491L120.832 14.8449C120.923 16.0071 120.004 17 118.838 17H109.162C107.996 17 107.077 16.0071 107.168 14.8449L107.79 6.84491C107.871 5.80364 108.739 5 109.784 5H110ZM118 6H110H109.784C109.262 6 108.827 6.40182 108.787 6.92245L108.165 14.9225C108.119 15.5035 108.579 16 109.162 16H118.838C119.421 16 119.881 15.5035 119.835 14.9225L119.213 6.92246C119.173 6.40182 118.738 6 118.216 6H118Z"/>
</mask>
<path fill-rule="evenodd" clip-rule="evenodd" d="M113 1H115C116.105 1 117 1.89543 117 3V5H111V3C111 1.89543 111.895 1 113 1ZM110 5V3C110 1.34315 111.343 0 113 0H115C116.657 0 118 1.34315 118 3V5H118.216C119.261 5 120.129 5.80364 120.21 6.84491L120.832 14.8449C120.923 16.0071 120.004 17 118.838 17H109.162C107.996 17 107.077 16.0071 107.168 14.8449L107.79 6.84491C107.871 5.80364 108.739 5 109.784 5H110ZM118 6H110H109.784C109.262 6 108.827 6.40182 108.787 6.92245L108.165 14.9225C108.119 15.5035 108.579 16 109.162 16H118.838C119.421 16 119.881 15.5035 119.835 14.9225L119.213 6.92246C119.173 6.40182 118.738 6 118.216 6H118Z" fill="#1C2A39"/>
<path d="M117 5V6H118V5H117ZM111 5H110V6H111V5ZM110 5V6H111V5H110ZM118 5H117V6H118V5ZM120.21 6.84491L121.207 6.76737L120.21 6.84491ZM120.832 14.8449L119.835 14.9225L120.832 14.8449ZM107.168 14.8449L106.171 14.7674H106.171L107.168 14.8449ZM107.79 6.84491L106.793 6.76737L107.79 6.84491ZM108.787 6.92245L107.79 6.84491L108.787 6.92245ZM108.165 14.9225L107.168 14.8449H107.168L108.165 14.9225ZM119.835 14.9225L118.838 15V15L119.835 14.9225ZM119.213 6.92246L118.216 7L119.213 6.92246ZM115 0H113V2H115V0ZM118 3C118 1.34315 116.657 0 115 0V2C115.552 2 116 2.44772 116 3H118ZM118 5V3H116V5H118ZM117 4H111V6H117V4ZM110 3V5H112V3H110ZM113 0C111.343 0 110 1.34315 110 3H112C112 2.44772 112.448 2 113 2V0ZM109 3V5H111V3H109ZM113 -1C110.791 -1 109 0.790861 109 3H111C111 1.89543 111.895 1 113 1V-1ZM115 -1H113V1H115V-1ZM119 3C119 0.790861 117.209 -1 115 -1V1C116.105 1 117 1.89543 117 3H119ZM119 5V3H117V5H119ZM118.216 4H118V6H118.216V4ZM121.207 6.76737C121.086 5.20546 119.783 4 118.216 4V6C118.738 6 119.173 6.40182 119.213 6.92246L121.207 6.76737ZM121.829 14.7674L121.207 6.76737L119.213 6.92246L119.835 14.9225L121.829 14.7674ZM118.838 18C120.587 18 121.965 16.5106 121.829 14.7674L119.835 14.9225C119.881 15.5035 119.421 16 118.838 16V18ZM109.162 18H118.838V16H109.162V18ZM106.171 14.7674C106.035 16.5106 107.413 18 109.162 18V16C108.579 16 108.119 15.5035 108.165 14.9225L106.171 14.7674ZM106.793 6.76737L106.171 14.7674L108.165 14.9225L108.787 6.92245L106.793 6.76737ZM109.784 4C108.217 4 106.914 5.20545 106.793 6.76737L108.787 6.92245C108.827 6.40182 109.262 6 109.784 6V4ZM110 4H109.784V6H110V4ZM118 5H110V7H118V5ZM110 5H109.784V7H110V5ZM109.784 5C108.739 5 107.871 5.80364 107.79 6.84491L109.784 7L109.784 7V5ZM107.79 6.84491L107.168 14.8449L109.162 15L109.784 7L107.79 6.84491ZM107.168 14.8449C107.077 16.0071 107.996 17 109.162 17V15H109.162L107.168 14.8449ZM109.162 17H118.838V15H109.162V17ZM118.838 17C120.004 17 120.923 16.0071 120.832 14.8449L118.838 15L118.838 15V17ZM120.832 14.8449L120.21 6.84491L118.216 7L118.838 15L120.832 14.8449ZM120.21 6.84491C120.129 5.80364 119.261 5 118.216 5V7H118.216L120.21 6.84491ZM118.216 5H118V7H118.216V5Z" fill="#1C2A39" mask="url(#path-1-inside-1_1_421)"/>
</g>
<path id="search" fill-rule="evenodd" clip-rule="evenodd" d="M64 7.5C64 10.5376 61.5376 13 58.5 13C55.4624 13 53 10.5376 53 7.5C53 4.46243 55.4624 2 58.5 2C61.5376 2 64 4.46243 64 7.5ZM62.8845 12.2986C61.7286 13.3554 60.1896 14 58.5 14C54.9101 14 52 11.0899 52 7.5C52 3.91015 54.9101 1 58.5 1C62.0899 1 65 3.91015 65 7.5C65 9.04017 64.4643 10.4552 63.5691 11.569L67 14.9999L66.2929 15.707L62.8845 12.2986Z" fill="#1C2A39"/>
<g id="user">
<mask id="path-4-inside-2_1_421" fill="white">
<path fill-rule="evenodd" clip-rule="evenodd" d="M9 5C9 6.65685 7.65685 8 6 8C4.34315 8 3 6.65685 3 5C3 3.34315 4.34315 2 6 2C7.65685 2 9 3.34315 9 5ZM10 5C10 7.20914 8.20914 9 6 9C3.79086 9 2 7.20914 2 5C2 2.79086 3.79086 1 6 1C8.20914 1 10 2.79086 10 5ZM1 14C1 12.3431 2.34315 11 4 11H8C9.65685 11 11 12.3431 11 14V15H1V14ZM0 14C0 11.7909 1.79086 10 4 10H8C10.2091 10 12 11.7909 12 14V16H0V14Z"/>
</mask>
<path fill-rule="evenodd" clip-rule="evenodd" d="M9 5C9 6.65685 7.65685 8 6 8C4.34315 8 3 6.65685 3 5C3 3.34315 4.34315 2 6 2C7.65685 2 9 3.34315 9 5ZM10 5C10 7.20914 8.20914 9 6 9C3.79086 9 2 7.20914 2 5C2 2.79086 3.79086 1 6 1C8.20914 1 10 2.79086 10 5ZM1 14C1 12.3431 2.34315 11 4 11H8C9.65685 11 11 12.3431 11 14V15H1V14ZM0 14C0 11.7909 1.79086 10 4 10H8C10.2091 10 12 11.7909 12 14V16H0V14Z" fill="#1C2A39"/>
<path d="M11 15V16H12V15H11ZM1 15H0V16H1V15ZM12 16V17H13V16H12ZM0 16H-1V17H0V16ZM6 9C8.20914 9 10 7.20914 10 5H8C8 6.10457 7.10457 7 6 7V9ZM2 5C2 7.20914 3.79086 9 6 9V7C4.89543 7 4 6.10457 4 5H2ZM6 1C3.79086 1 2 2.79086 2 5H4C4 3.89543 4.89543 3 6 3V1ZM10 5C10 2.79086 8.20914 1 6 1V3C7.10457 3 8 3.89543 8 5H10ZM6 10C8.76142 10 11 7.76142 11 5H9C9 6.65685 7.65685 8 6 8V10ZM1 5C1 7.76142 3.23858 10 6 10V8C4.34315 8 3 6.65685 3 5H1ZM6 0C3.23858 0 1 2.23858 1 5H3C3 3.34315 4.34315 2 6 2V0ZM11 5C11 2.23858 8.76142 0 6 0V2C7.65685 2 9 3.34315 9 5H11ZM4 10C1.79086 10 0 11.7909 0 14H2C2 12.8954 2.89543 12 4 12V10ZM8 10H4V12H8V10ZM12 14C12 11.7909 10.2091 10 8 10V12C9.10457 12 10 12.8954 10 14H12ZM12 15V14H10V15H12ZM1 16H11V14H1V16ZM0 14V15H2V14H0ZM4 9C1.23858 9 -1 11.2386 -1 14H1C1 12.3431 2.34315 11 4 11V9ZM8 9H4V11H8V9ZM13 14C13 11.2386 10.7614 9 8 9V11C9.65685 11 11 12.3431 11 14H13ZM13 16V14H11V16H13ZM0 17H12V15H0V17ZM-1 14V16H1V14H-1Z" fill="#1C2A39" mask="url(#path-4-inside-2_1_421)"/>
</g>
</g>
</svg>
